<svg width="21" height="19" viewBox="0 0 21 19" fill="none" xmlns="http://www.w3.org/2000/svg">
<path d="M10.5 3.77494C13.9455 3.77494 17.0182 5.7588 18.5182 8.89758C17.9818 10.0339 17.2273 11.0118 16.3273 11.8035L17.6091 13.1168C18.8727 11.9712 19.8727 10.5368 20.5 8.89758C18.9273 4.80878 15.0455 1.91216 10.5 1.91216C9.34546 1.91216 8.23636 2.09844 7.19091 2.44305L8.69091 3.97984C9.28182 3.85876 9.88182 3.77494 10.5 3.77494ZM9.52727 4.83672L11.4091 6.7647C11.9273 6.99755 12.3455 7.42598 12.5727 7.95688L14.4545 9.88485C14.5273 9.56818 14.5818 9.23288 14.5818 8.88827C14.5909 6.57842 12.7545 4.70633 10.5 4.70633C10.1636 4.70633 9.84546 4.7529 9.52727 4.83672ZM1.41818 1.79108L3.85455 4.2872C2.37273 5.47938 1.2 7.06274 0.5 8.89758C2.07273 12.9864 5.95455 15.883 10.5 15.883C11.8818 15.883 13.2091 15.6129 14.4273 15.1193L17.5364 18.3046L18.8182 16.9914L2.7 0.468506L1.41818 1.79108ZM8.23636 8.7765L10.6091 11.2074C10.5727 11.2167 10.5364 11.2261 10.5 11.2261C9.24545 11.2261 8.22727 10.1829 8.22727 8.89758C8.22727 8.85101 8.23636 8.82307 8.23636 8.7765ZM5.14545 5.60977L6.73636 7.23971C6.52727 7.75197 6.40909 8.3108 6.40909 8.89758C6.40909 11.2074 8.24545 13.0888 10.5 13.0888C11.0727 13.0888 11.6182 12.9678 12.1091 12.7535L13 13.6663C12.2 13.8898 11.3636 14.0202 10.5 14.0202C7.05455 14.0202 3.98182 12.0364 2.48182 8.89758C3.11818 7.56569 4.04545 6.46665 5.14545 5.60977Z" fill="#C6C6C6"/>
</svg>
