<svg width="20" height="14" viewBox="0 0 20 14" fill="none" xmlns="http://www.w3.org/2000/svg">
<path d="M10 1.86278C13.4455 1.86278 16.5182 3.84664 18.0182 6.98542C16.5182 10.1242 13.4455 12.1081 10 12.1081C6.55455 12.1081 3.48182 10.1242 1.98182 6.98542C3.48182 3.84664 6.55455 1.86278 10 1.86278ZM10 0C5.45455 0 1.57273 2.89662 0 6.98542C1.57273 11.0742 5.45455 13.9708 10 13.9708C14.5455 13.9708 18.4273 11.0742 20 6.98542C18.4273 2.89662 14.5455 0 10 0ZM10 4.65695C11.2545 4.65695 12.2727 5.7001 12.2727 6.98542C12.2727 8.27074 11.2545 9.31389 10 9.31389C8.74545 9.31389 7.72727 8.27074 7.72727 6.98542C7.72727 5.7001 8.74545 4.65695 10 4.65695ZM10 2.79417C7.74545 2.79417 5.90909 4.67557 5.90909 6.98542C5.90909 9.29527 7.74545 11.1767 10 11.1767C12.2545 11.1767 14.0909 9.29527 14.0909 6.98542C14.0909 4.67557 12.2545 2.79417 10 2.79417Z" fill="#C6C6C6"/>
</svg>
