<svg width="81" height="23" viewBox="0 0 81 23" fill="none" xmlns="http://www.w3.org/2000/svg">
<path d="M0.75 11.2126C0.75 9.69181 1.03646 8.26994 1.60938 6.94702C2.19271 5.61369 2.99479 4.44181 4.01562 3.4314C5.03646 2.42098 6.21354 1.62931 7.54688 1.0564C8.89062 0.48348 10.3177 0.197021 11.8281 0.197021C13.349 0.197021 14.7865 0.488688 16.1406 1.07202C17.4948 1.64494 18.6875 2.44181 19.7188 3.46265C20.7604 4.47306 21.5781 5.65015 22.1719 6.9939C22.7656 8.33765 23.0625 9.77515 23.0625 11.3064C23.0625 12.8481 22.7708 14.2804 22.1875 15.6033C21.6042 16.9158 20.7969 18.0616 19.7656 19.0408C18.7344 20.0199 17.5417 20.7804 16.1875 21.322C14.8438 21.8637 13.4115 22.1345 11.8906 22.1345C10.3594 22.1345 8.91667 21.8585 7.5625 21.3064C6.21875 20.7543 5.03646 19.9835 4.01562 18.9939C2.99479 18.0043 2.19271 16.8481 1.60938 15.5251C1.03646 14.2022 0.75 12.7647 0.75 11.2126ZM7.95312 11.0876C7.95312 12.296 8.34896 13.2908 9.14062 14.072C9.94271 14.8429 10.9427 15.2283 12.1406 15.2283C13.3177 15.2283 14.2292 14.8376 14.875 14.0564C15.5312 13.2751 15.8594 12.3272 15.8594 11.2126C15.8594 10.046 15.5052 9.07202 14.7969 8.29077C14.0885 7.4991 13.1354 7.10327 11.9375 7.10327C10.7708 7.10327 9.8125 7.47827 9.0625 8.22827C8.32292 8.96785 7.95312 9.92098 7.95312 11.0876ZM26.0312 1.10327C26.0312 0.665771 26.2396 0.447021 26.6562 0.447021H34.8594C36.2135 0.447021 37.5052 0.603271 38.7344 0.915771C39.974 1.22827 41.0729 1.72306 42.0312 2.40015C42.9896 3.06681 43.7448 3.9366 44.2969 5.00952C44.8594 6.07202 45.1406 7.36369 45.1406 8.88452C45.1406 11.572 44.3542 13.6606 42.7812 15.1501C41.2188 16.6397 39.1094 17.3845 36.4531 17.3845H33.3594C33.2448 17.3845 33.1875 17.4522 33.1875 17.5876C33.1875 17.7856 33.1823 17.9887 33.1719 18.197C33.1615 18.3949 33.1562 18.5981 33.1562 18.8064C33.1562 19.1918 33.1615 19.6033 33.1719 20.0408C33.1927 20.4679 33.1771 20.8793 33.125 21.2751C33.0938 21.4939 33.0417 21.6554 32.9688 21.7595C32.8958 21.8637 32.7344 21.9158 32.4844 21.9158H26.5938C26.1771 21.9158 25.9688 21.697 25.9688 21.2595C25.9688 20.697 25.9896 20.1293 26.0312 19.5564C26.0729 18.9835 26.1042 18.4158 26.125 17.8533C26.1771 16.6762 26.2135 15.4991 26.2344 14.322C26.2656 13.1345 26.2812 11.947 26.2812 10.7595C26.2812 9.70744 26.2708 8.65535 26.25 7.60327C26.2396 6.55119 26.2135 5.4991 26.1719 4.44702C26.151 3.89494 26.1198 3.33765 26.0781 2.77515C26.0469 2.21265 26.0312 1.65535 26.0312 1.10327ZM35.6094 11.9939C36.651 11.9939 37.3438 11.6918 37.6875 11.0876C38.0312 10.4731 38.2031 9.70744 38.2031 8.79077C38.2031 7.10327 37.3385 6.25952 35.6094 6.25952H33.1875C33.1875 7.20744 33.1927 8.16056 33.2031 9.1189C33.2135 10.0772 33.2083 11.0356 33.1875 11.9939H35.6094ZM46.9219 1.10327C46.9219 0.665771 47.1302 0.447021 47.5469 0.447021H62.0156C62.4323 0.447021 62.6406 0.665771 62.6406 1.10327C62.6406 1.61369 62.625 2.12931 62.5938 2.65015C62.5729 3.16056 62.5521 3.67619 62.5312 4.19702C62.5208 4.61369 62.5104 5.03035 62.5 5.44702C62.5 5.85327 62.4896 6.26473 62.4688 6.6814C62.4583 7.10848 62.2448 7.32202 61.8281 7.32202H58.2656C58.1302 7.32202 58.0625 7.38973 58.0625 7.52515V9.96265C58.0625 11.8481 58.0833 13.7335 58.125 15.6189C58.1667 17.5043 58.1875 19.3897 58.1875 21.2751C58.1875 21.7022 57.974 21.9158 57.5469 21.9158H51.6406C51.2344 21.9158 51.0312 21.7022 51.0312 21.2751C51.0312 19.5564 51.0469 17.8376 51.0781 16.1189C51.1094 14.4001 51.125 12.6814 51.125 10.9626V7.52515C51.125 7.38973 51.0625 7.32202 50.9375 7.32202H47.7344C47.3177 7.32202 47.1042 7.10848 47.0938 6.6814C47.0729 6.26473 47.0625 5.85327 47.0625 5.44702C47.0625 5.03035 47.0521 4.61369 47.0312 4.19702C47.0208 3.67619 47 3.16056 46.9688 2.65015C46.9375 2.12931 46.9219 1.61369 46.9219 1.10327ZM64.2969 1.10327C64.2969 0.665771 64.5052 0.447021 64.9219 0.447021H79.3906C79.8073 0.447021 80.0156 0.665771 80.0156 1.10327C80.0156 1.61369 80 2.12931 79.9688 2.65015C79.9479 3.16056 79.9271 3.67619 79.9062 4.19702C79.8958 4.61369 79.8854 5.03035 79.875 5.44702C79.875 5.85327 79.8646 6.26473 79.8438 6.6814C79.8333 7.10848 79.6198 7.32202 79.2031 7.32202H75.6406C75.5052 7.32202 75.4375 7.38973 75.4375 7.52515V9.96265C75.4375 11.8481 75.4583 13.7335 75.5 15.6189C75.5417 17.5043 75.5625 19.3897 75.5625 21.2751C75.5625 21.7022 75.349 21.9158 74.9219 21.9158H69.0156C68.6094 21.9158 68.4062 21.7022 68.4062 21.2751C68.4062 19.5564 68.4219 17.8376 68.4531 16.1189C68.4844 14.4001 68.5 12.6814 68.5 10.9626V7.52515C68.5 7.38973 68.4375 7.32202 68.3125 7.32202H65.1094C64.6927 7.32202 64.4792 7.10848 64.4688 6.6814C64.4479 6.26473 64.4375 5.85327 64.4375 5.44702C64.4375 5.03035 64.4271 4.61369 64.4062 4.19702C64.3958 3.67619 64.375 3.16056 64.3438 2.65015C64.3125 2.12931 64.2969 1.61369 64.2969 1.10327Z" fill="#0C0856"/>
</svg>
