<svg width="378" height="118" viewBox="0 0 378 118" fill="none" xmlns="http://www.w3.org/2000/svg">
<rect x="4" y="4" width="370" height="110" rx="50" fill="#5490D9" stroke="#0C0856" stroke-width="7"/>
<path d="M93.012 55H98.916V58.852H93.012V55ZM80.412 65.044H82.68C87.36 65.044 90.384 64.972 94.02 64.36L94.416 68.176C90.672 68.824 87.468 68.896 82.68 68.896H80.412V65.044ZM80.412 46.54H92.796V50.32H84.948V66.448H80.412V46.54ZM83.652 55.504H91.536V59.176H83.652V55.504ZM103.524 42.868H108.096V76.204H103.524V42.868ZM96.648 43.444H101.112V74.728H96.648V43.444ZM124.941 44.776H129.117V47.188C129.117 54.424 123.969 60.832 115.329 62.524L113.277 58.564C120.801 57.268 124.941 51.976 124.941 47.188V44.776ZM125.913 44.776H130.053V47.188C130.053 52.084 134.157 57.268 141.717 58.564L139.665 62.524C131.025 60.832 125.913 54.532 125.913 47.188V44.776ZM112.593 68.248H142.761V72.136H112.593V68.248ZM149.238 60.04H172.674V63.784H149.238V60.04ZM145.71 68.5H175.878V72.388H145.71V68.5ZM149.238 45.28H172.386V49.132H154.098V61.084H149.238V45.28ZM152.622 52.624H171.63V56.332H152.622V52.624ZM194.662 45.424H198.55V50.284C198.55 58.852 195.598 66.592 188.974 69.652L186.13 65.692C191.926 63.172 194.662 56.764 194.662 50.284V45.424ZM195.598 45.424H199.486V50.284C199.486 56.44 202.114 62.56 207.802 65.008L204.994 68.86C198.55 65.908 195.598 58.492 195.598 50.284V45.424ZM209.386 42.832H214.21V76.276H209.386V42.832ZM227.059 46.288H230.983V48.376C230.983 54.676 227.995 60.328 221.623 62.38L219.139 58.672C224.719 56.872 227.059 52.552 227.059 48.376V46.288ZM228.031 46.288H231.919V48.376C231.919 52.3 234.187 56.368 239.587 58.096L237.139 61.804C230.911 59.788 228.031 54.352 228.031 48.376V46.288ZM220.435 44.812H238.435V48.628H220.435V44.812ZM241.099 42.868H245.887V62.956H241.099V42.868ZM244.555 50.932H250.315V54.856H244.555V50.932ZM223.639 64.396H245.887V76.204H241.099V68.248H223.639V64.396ZM274.144 42.868H278.896V76.204H274.144V42.868ZM277.816 55.864H283.72V59.86H277.816V55.864ZM252.616 47.8H272.02V51.616H252.616V47.8ZM262.372 53.488C267.232 53.488 270.832 56.8 270.832 61.444C270.832 66.088 267.232 69.4 262.372 69.4C257.512 69.4 253.912 66.088 253.912 61.444C253.912 56.8 257.512 53.488 262.372 53.488ZM262.372 57.376C260.104 57.376 258.484 58.888 258.484 61.444C258.484 64 260.104 65.512 262.372 65.512C264.64 65.512 266.26 64 266.26 61.444C266.26 58.888 264.64 57.376 262.372 57.376ZM259.96 43.408H264.748V49.24H259.96V43.408ZM308.846 42.868H313.67V76.204H308.846V42.868ZM299.018 46.324H303.77C303.77 56.512 300.314 64.864 288.47 70.588L285.986 66.772C295.562 62.164 299.018 56.116 299.018 47.188V46.324ZM287.75 46.324H301.286V50.104H287.75V46.324Z" fill="#EDFCFF"/>
</svg>
