<svg width="103" height="35" viewBox="0 0 103 35" fill="none" xmlns="http://www.w3.org/2000/svg">
<path d="M1.40625 20.959C1.40625 19.248 1.72852 17.6484 2.37305 16.1602C3.0293 14.6602 3.93164 13.3418 5.08008 12.2051C6.22852 11.0684 7.55273 10.1777 9.05273 9.5332C10.5645 8.88867 12.1699 8.56641 13.8691 8.56641C15.5801 8.56641 17.1973 8.89453 18.7207 9.55078C20.2441 10.1953 21.5859 11.0918 22.7461 12.2402C23.918 13.377 24.8379 14.7012 25.5059 16.2129C26.1738 17.7246 26.5078 19.3418 26.5078 21.0645C26.5078 22.7988 26.1797 24.4102 25.5234 25.8984C24.8672 27.375 23.959 28.6641 22.7988 29.7656C21.6387 30.8672 20.2969 31.7227 18.7734 32.332C17.2617 32.9414 15.6504 33.2461 13.9395 33.2461C12.2168 33.2461 10.5938 32.9355 9.07031 32.3145C7.55859 31.6934 6.22852 30.8262 5.08008 29.7129C3.93164 28.5996 3.0293 27.2988 2.37305 25.8105C1.72852 24.3223 1.40625 22.7051 1.40625 20.959ZM9.50977 20.8184C9.50977 22.1777 9.95508 23.2969 10.8457 24.1758C11.748 25.043 12.873 25.4766 14.2207 25.4766C15.5449 25.4766 16.5703 25.0371 17.2969 24.1582C18.0352 23.2793 18.4043 22.2129 18.4043 20.959C18.4043 19.6465 18.0059 18.5508 17.209 17.6719C16.4121 16.7812 15.3398 16.3359 13.9922 16.3359C12.6797 16.3359 11.6016 16.7578 10.7578 17.6016C9.92578 18.4336 9.50977 19.5059 9.50977 20.8184ZM29.8477 9.58594C29.8477 9.09375 30.082 8.84766 30.5508 8.84766H39.7793C41.3027 8.84766 42.7559 9.02344 44.1387 9.375C45.5332 9.72656 46.7695 10.2832 47.8477 11.0449C48.9258 11.7949 49.7754 12.7734 50.3965 13.9805C51.0293 15.1758 51.3457 16.6289 51.3457 18.3398C51.3457 21.3633 50.4609 23.7129 48.6914 25.3887C46.9336 27.0645 44.5605 27.9023 41.5723 27.9023H38.0918C37.9629 27.9023 37.8984 27.9785 37.8984 28.1309C37.8984 28.3535 37.8926 28.582 37.8809 28.8164C37.8691 29.0391 37.8633 29.2676 37.8633 29.502C37.8633 29.9355 37.8691 30.3984 37.8809 30.8906C37.9043 31.3711 37.8867 31.834 37.8281 32.2793C37.793 32.5254 37.7344 32.707 37.6523 32.8242C37.5703 32.9414 37.3887 33 37.1074 33H30.4805C30.0117 33 29.7773 32.7539 29.7773 32.2617C29.7773 31.6289 29.8008 30.9902 29.8477 30.3457C29.8945 29.7012 29.9297 29.0625 29.9531 28.4297C30.0117 27.1055 30.0527 25.7812 30.0762 24.457C30.1113 23.1211 30.1289 21.7852 30.1289 20.4492C30.1289 19.2656 30.1172 18.082 30.0938 16.8984C30.082 15.7148 30.0527 14.5312 30.0059 13.3477C29.9824 12.7266 29.9473 12.0996 29.9004 11.4668C29.8652 10.834 29.8477 10.207 29.8477 9.58594ZM40.623 21.8379C41.7949 21.8379 42.5742 21.498 42.9609 20.8184C43.3477 20.127 43.541 19.2656 43.541 18.2344C43.541 16.3359 42.5684 15.3867 40.623 15.3867H37.8984C37.8984 16.4531 37.9043 17.5254 37.916 18.6035C37.9277 19.6816 37.9219 20.7598 37.8984 21.8379H40.623ZM53.3496 9.58594C53.3496 9.09375 53.584 8.84766 54.0527 8.84766H70.3301C70.7988 8.84766 71.0332 9.09375 71.0332 9.58594C71.0332 10.1602 71.0156 10.7402 70.9805 11.3262C70.957 11.9004 70.9336 12.4805 70.9102 13.0664C70.8984 13.5352 70.8867 14.0039 70.875 14.4727C70.875 14.9297 70.8633 15.3926 70.8398 15.8613C70.8281 16.3418 70.5879 16.582 70.1191 16.582H66.1113C65.959 16.582 65.8828 16.6582 65.8828 16.8105V19.5527C65.8828 21.6738 65.9062 23.7949 65.9531 25.916C66 28.0371 66.0234 30.1582 66.0234 32.2793C66.0234 32.7598 65.7832 33 65.3027 33H58.6582C58.2012 33 57.9727 32.7598 57.9727 32.2793C57.9727 30.3457 57.9902 28.4121 58.0254 26.4785C58.0605 24.5449 58.0781 22.6113 58.0781 20.6777V16.8105C58.0781 16.6582 58.0078 16.582 57.8672 16.582H54.2637C53.7949 16.582 53.5547 16.3418 53.543 15.8613C53.5195 15.3926 53.5078 14.9297 53.5078 14.4727C53.5078 14.0039 53.4961 13.5352 53.4727 13.0664C53.4609 12.4805 53.4375 11.9004 53.4023 11.3262C53.3672 10.7402 53.3496 10.1602 53.3496 9.58594ZM72.8965 9.58594C72.8965 9.09375 73.1309 8.84766 73.5996 8.84766H89.877C90.3457 8.84766 90.5801 9.09375 90.5801 9.58594C90.5801 10.1602 90.5625 10.7402 90.5273 11.3262C90.5039 11.9004 90.4805 12.4805 90.457 13.0664C90.4453 13.5352 90.4336 14.0039 90.4219 14.4727C90.4219 14.9297 90.4102 15.3926 90.3867 15.8613C90.375 16.3418 90.1348 16.582 89.666 16.582H85.6582C85.5059 16.582 85.4297 16.6582 85.4297 16.8105V19.5527C85.4297 21.6738 85.4531 23.7949 85.5 25.916C85.5469 28.0371 85.5703 30.1582 85.5703 32.2793C85.5703 32.7598 85.3301 33 84.8496 33H78.2051C77.748 33 77.5195 32.7598 77.5195 32.2793C77.5195 30.3457 77.5371 28.4121 77.5723 26.4785C77.6074 24.5449 77.625 22.6113 77.625 20.6777V16.8105C77.625 16.6582 77.5547 16.582 77.4141 16.582H73.8105C73.3418 16.582 73.1016 16.3418 73.0898 15.8613C73.0664 15.3926 73.0547 14.9297 73.0547 14.4727C73.0547 14.0039 73.043 13.5352 73.0195 13.0664C73.0078 12.4805 72.9844 11.9004 72.9492 11.3262C72.9141 10.7402 72.8965 10.1602 72.8965 9.58594Z" fill="#0C0856"/>
</svg>
