<svg width="378" height="118" viewBox="0 0 378 118" fill="none" xmlns="http://www.w3.org/2000/svg">
<rect x="4" y="4" width="370" height="110" rx="50" fill="#5490D9" stroke="#0C0856" stroke-width="7"/>
<path d="M80.792 68.636C79.028 68.636 77.66 68.384 76.652 67.844C74.6 66.8 73.7 64.388 73.7 60.032V46.532C73.7 44.768 74.636 43.832 76.4 43.832H84.824C86.408 43.832 87.272 44.804 87.272 46.532C87.272 48.26 86.408 49.232 84.824 49.232H80C79.388 49.232 79.1 49.52 79.1 50.132V53.228H83.744C85.328 53.228 86.192 54.2 86.192 55.892C86.192 57.584 85.328 58.556 83.744 58.556H79.1V60.068C79.1 62.516 79.784 63.236 81.548 63.236C82.736 63.236 84.068 63.056 85.544 62.696C85.796 62.66 85.976 62.624 86.084 62.624C87.272 62.624 88.208 63.74 88.208 65.468C88.208 66.656 87.632 67.556 86.48 67.88C85.04 68.312 82.772 68.636 80.792 68.636ZM86.516 56.864C86.516 55.172 87.344 54.344 88.964 54.344H89.9V44.696C89.9 42.932 90.836 41.996 92.6 41.996C94.364 41.996 95.3 42.932 95.3 44.696V73.316C95.3 75.08 94.364 76.016 92.6 76.016C90.836 76.016 89.9 75.08 89.9 73.316V59.384H88.964C87.344 59.384 86.516 58.556 86.516 56.864ZM97.28 74.216V44.336C97.28 42.572 98.216 41.636 99.98 41.636C101.744 41.636 102.68 42.572 102.68 44.336V74.216C102.68 75.98 101.744 76.916 99.98 76.916C98.216 76.916 97.28 75.98 97.28 74.216ZM113.855 61.94C113.207 62.3 112.631 62.48 112.091 62.48C111.299 62.48 110.615 62.084 110.003 61.328C109.571 60.752 109.355 60.176 109.355 59.564C109.355 58.7 109.751 58.016 110.579 57.512C115.907 54.2 118.859 50.852 118.859 45.704C118.859 43.976 119.867 42.968 121.739 42.968H121.883C123.755 42.968 124.799 43.976 124.799 45.704C124.799 47.396 124.583 49.016 124.115 50.528C127.715 53.228 130.595 55.64 132.719 57.836C133.331 58.448 133.619 59.096 133.619 59.78C133.619 60.464 133.295 61.112 132.683 61.796C132.143 62.336 131.459 62.66 130.739 62.66C129.983 62.66 129.299 62.372 128.687 61.76C126.491 59.564 124.151 57.44 121.667 55.46C119.903 57.8 117.275 59.96 113.855 61.94ZM105.755 70.292C105.755 68.564 106.799 67.592 108.815 67.592H134.735C136.751 67.592 137.795 68.564 137.795 70.292C137.795 72.02 136.751 72.992 134.735 72.992H108.815C106.799 72.992 105.755 72.02 105.755 70.292ZM156.171 63.92C153.363 63.92 151.167 63.668 149.547 63.164C146.343 62.192 144.831 59.888 144.831 55.28V47C144.831 44.66 146.127 43.472 148.719 43.472H163.191C165.207 43.472 166.251 44.48 166.251 46.1C166.251 47.72 165.207 48.728 163.191 48.728H151.599C150.987 48.728 150.771 48.944 150.771 49.556V50.888H163.371C164.991 50.888 165.711 51.824 165.711 53.3C165.711 54.776 164.991 55.712 163.371 55.712H150.771C150.807 56.504 150.987 57.116 151.311 57.548C151.959 58.412 153.147 58.664 155.451 58.664C158.295 58.664 161.643 58.304 163.695 57.764C164.019 57.656 164.343 57.62 164.703 57.62C165.855 57.62 166.755 58.268 167.079 59.456C167.187 59.888 167.259 60.248 167.259 60.572C167.259 61.688 166.611 62.444 165.351 62.804C162.939 63.416 158.907 63.92 156.171 63.92ZM139.611 70.652C139.611 68.924 140.655 67.952 142.671 67.952H168.591C170.607 67.952 171.651 68.924 171.651 70.652C171.651 72.38 170.607 73.352 168.591 73.352H142.671C140.655 73.352 139.611 72.38 139.611 70.652ZM184.707 68.24C184.023 67.664 183.663 66.98 183.663 66.224C183.663 65.54 183.951 64.892 184.491 64.28C185.715 62.948 186.759 61.652 187.587 60.464C189.279 58.052 190.539 54.812 190.539 50.888V46.604C190.539 45.02 191.655 43.724 193.419 43.724H193.563C195.399 43.724 196.479 45.02 196.479 46.604V50.888C196.479 51.968 196.371 53.084 196.191 54.236C199.179 57.656 201.591 60.896 203.355 63.92C203.679 64.46 203.823 64.964 203.823 65.432C203.823 66.332 203.355 67.124 202.383 67.772C201.951 68.06 201.447 68.204 200.907 68.204C199.935 68.204 198.999 67.7 198.423 66.8C196.947 64.46 195.543 62.372 194.139 60.536C192.735 63.308 190.935 65.684 188.811 67.7C188.019 68.456 187.191 68.816 186.327 68.816C185.715 68.816 185.175 68.636 184.707 68.24ZM205.695 73.892V44.336C205.695 42.608 206.811 41.636 208.575 41.636H208.755C210.519 41.636 211.635 42.608 211.635 44.336V73.892C211.635 75.62 210.519 76.592 208.755 76.592H208.575C206.811 76.592 205.695 75.62 205.695 73.892ZM221.154 60.464C220.758 60.68 220.326 60.788 219.858 60.788C218.958 60.788 218.058 60.356 217.482 59.492C217.158 59.024 216.978 58.52 216.978 57.98C216.978 57.08 217.518 56.18 218.526 55.604C222.306 53.336 223.926 51.608 223.926 49.34V48.08H220.29C218.526 48.08 217.41 47.072 217.41 45.452C217.41 43.724 218.67 42.824 220.29 42.824H233.538C235.158 42.824 236.418 43.724 236.418 45.452C236.418 47.18 235.158 48.08 233.538 48.08H229.83V49.34C229.83 49.952 229.794 50.456 229.686 50.852C232.242 52.184 234.33 53.552 235.986 54.92C236.67 55.496 236.994 56.216 236.994 57.044C236.994 57.8 236.706 58.448 236.166 58.988C235.662 59.456 235.05 59.708 234.294 59.708C233.538 59.708 232.854 59.492 232.206 59.024C230.874 58.052 229.254 56.972 227.31 55.748C225.87 57.44 223.818 58.988 221.154 60.464ZM222.09 65.072C222.09 63.488 222.99 62.408 224.862 62.408H241.098C243.402 62.408 244.41 63.416 244.41 65.576V73.892C244.41 75.62 243.294 76.592 241.53 76.592H241.35C239.586 76.592 238.47 75.62 238.47 73.892V68.348C238.47 67.952 238.254 67.736 237.858 67.736H224.862C222.954 67.736 222.09 66.656 222.09 65.072ZM238.47 57.908V44.336C238.47 42.608 239.586 41.636 241.35 41.636H241.53C243.294 41.636 244.41 42.608 244.41 44.336V47.648H246.246C247.974 47.648 248.946 48.656 248.946 50.348C248.946 52.04 247.974 53.048 246.246 53.048H244.41V57.908C244.41 59.636 243.294 60.608 241.53 60.608H241.35C239.586 60.608 238.47 59.636 238.47 57.908ZM275.206 76.592C273.442 76.592 272.326 75.62 272.326 73.892V44.336C272.326 42.608 273.442 41.636 275.206 41.636H275.386C277.15 41.636 278.266 42.608 278.266 44.336V52.868H280.102C281.83 52.868 282.802 53.876 282.802 55.568C282.802 57.26 281.83 58.268 280.102 58.268H278.266V73.892C278.266 75.62 277.15 76.592 275.386 76.592H275.206ZM250.546 51.644C250.546 49.952 251.554 48.98 253.246 48.98H268.726C270.418 48.98 271.426 49.952 271.426 51.644C271.426 53.336 270.418 54.308 268.726 54.308H253.246C251.554 54.308 250.546 53.336 250.546 51.644ZM253.246 62.3C253.246 58.196 256.342 55.1 261.202 55.1C266.062 55.1 269.158 58.196 269.158 62.3C269.158 66.548 266.062 69.644 261.202 69.644C256.342 69.644 253.246 66.548 253.246 62.3ZM253.858 44.876C253.858 44.516 253.894 44.192 254.002 43.868C254.326 42.608 255.226 41.96 256.234 41.96C256.486 41.96 256.738 41.996 256.99 42.068C258.322 42.5 259.402 42.68 261.094 42.68H265.774C267.466 42.68 268.474 43.652 268.474 45.344C268.474 47.036 267.466 48.008 265.774 48.008H260.842C258.43 48.008 256.882 47.792 255.406 47.18C254.362 46.748 253.858 45.992 253.858 44.876ZM258.826 62.3C258.826 63.488 259.798 64.316 261.202 64.316C262.606 64.316 263.578 63.488 263.578 62.3C263.578 61.112 262.606 60.284 261.202 60.284C259.798 60.284 258.826 61.112 258.826 62.3ZM289.153 68.6C288.577 68.96 288.001 69.14 287.461 69.14C286.561 69.14 285.805 68.672 285.229 67.772C284.833 67.16 284.617 66.548 284.617 66.008C284.617 65.216 285.013 64.568 285.841 64.028C293.077 59.312 296.641 55.028 296.641 49.844C296.641 49.448 296.425 49.232 296.029 49.232H288.361C286.345 49.232 285.301 48.26 285.301 46.532C285.301 44.804 286.345 43.832 288.361 43.832H299.449C301.573 43.832 302.761 44.984 302.725 47.18L302.689 48.836C302.617 51.824 302.041 54.488 300.961 56.828C298.765 61.508 294.949 65 289.153 68.6ZM307.261 73.892V44.336C307.261 42.608 308.377 41.636 310.141 41.636H310.321C312.085 41.636 313.201 42.608 313.201 44.336V73.892C313.201 75.62 312.085 76.592 310.321 76.592H310.141C308.377 76.592 307.261 75.62 307.261 73.892Z" fill="#EDFCFF"/>
</svg>
