<svg width="370" height="80" viewBox="0 0 370 80" fill="none" xmlns="http://www.w3.org/2000/svg">
<rect width="370" height="80" rx="40" fill="#5490D9"/>
<path d="M122.952 49.636C116.796 49.636 113.7 46.972 113.7 40.384V28.36C113.7 26.02 114.996 24.832 117.588 24.832H127.74C129.756 24.832 130.8 25.804 130.8 27.532C130.8 29.26 129.756 30.232 127.74 30.232H120.468C119.856 30.232 119.64 30.448 119.64 31.06V40.42C119.64 43.192 120.828 44.236 122.988 44.236C124.824 44.236 126.696 43.912 128.604 43.228C129 43.084 129.396 43.012 129.72 43.012C130.764 43.012 131.628 43.66 132.024 44.812C132.132 45.136 132.204 45.532 132.204 45.964C132.204 47.116 131.592 47.908 130.332 48.376C128.172 49.132 125.364 49.636 122.952 49.636ZM134.4 54.892V25.336C134.4 23.608 135.516 22.636 137.28 22.636H137.46C139.224 22.636 140.34 23.608 140.34 25.336V33.868H142.176C143.904 33.868 144.876 34.876 144.876 36.568C144.876 38.26 143.904 39.268 142.176 39.268H140.34V54.892C140.34 56.62 139.224 57.592 137.46 57.592H137.28C135.516 57.592 134.4 56.62 134.4 54.892ZM148.347 49.24C147.663 48.664 147.303 47.98 147.303 47.224C147.303 46.54 147.591 45.892 148.131 45.28C149.355 43.948 150.399 42.652 151.227 41.464C152.919 39.052 154.179 35.812 154.179 31.888V27.604C154.179 26.02 155.295 24.724 157.059 24.724H157.203C159.039 24.724 160.119 26.02 160.119 27.604V31.888C160.119 32.968 160.011 34.084 159.831 35.236C162.819 38.656 165.231 41.896 166.995 44.92C167.319 45.46 167.463 45.964 167.463 46.432C167.463 47.332 166.995 48.124 166.023 48.772C165.591 49.06 165.087 49.204 164.547 49.204C163.575 49.204 162.639 48.7 162.063 47.8C160.587 45.46 159.183 43.372 157.779 41.536C156.375 44.308 154.575 46.684 152.451 48.7C151.659 49.456 150.831 49.816 149.967 49.816C149.355 49.816 148.815 49.636 148.347 49.24ZM169.335 54.892V25.336C169.335 23.608 170.451 22.636 172.215 22.636H172.395C174.159 22.636 175.275 23.608 175.275 25.336V54.892C175.275 56.62 174.159 57.592 172.395 57.592H172.215C170.451 57.592 169.335 56.62 169.335 54.892ZM204.991 57.592C203.227 57.592 202.111 56.62 202.111 54.892V25.336C202.111 23.608 203.227 22.636 204.991 22.636H205.171C206.935 22.636 208.051 23.608 208.051 25.336V33.868H209.887C211.615 33.868 212.587 34.876 212.587 36.568C212.587 38.26 211.615 39.268 209.887 39.268H208.051V54.892C208.051 56.62 206.935 57.592 205.171 57.592H204.991ZM180.331 32.644C180.331 30.952 181.339 29.98 183.031 29.98H198.511C200.203 29.98 201.211 30.952 201.211 32.644C201.211 34.336 200.203 35.308 198.511 35.308H183.031C181.339 35.308 180.331 34.336 180.331 32.644ZM183.031 43.3C183.031 39.196 186.127 36.1 190.987 36.1C195.847 36.1 198.943 39.196 198.943 43.3C198.943 47.548 195.847 50.644 190.987 50.644C186.127 50.644 183.031 47.548 183.031 43.3ZM183.643 25.876C183.643 25.516 183.679 25.192 183.787 24.868C184.111 23.608 185.011 22.96 186.019 22.96C186.271 22.96 186.523 22.996 186.775 23.068C188.107 23.5 189.187 23.68 190.879 23.68H195.559C197.251 23.68 198.259 24.652 198.259 26.344C198.259 28.036 197.251 29.008 195.559 29.008H190.627C188.215 29.008 186.667 28.792 185.191 28.18C184.147 27.748 183.643 26.992 183.643 25.876ZM188.611 43.3C188.611 44.488 189.583 45.316 190.987 45.316C192.391 45.316 193.363 44.488 193.363 43.3C193.363 42.112 192.391 41.284 190.987 41.284C189.583 41.284 188.611 42.112 188.611 43.3ZM218.938 49.6C218.362 49.96 217.786 50.14 217.246 50.14C216.346 50.14 215.59 49.672 215.014 48.772C214.618 48.16 214.402 47.548 214.402 47.008C214.402 46.216 214.798 45.568 215.626 45.028C222.862 40.312 226.426 36.028 226.426 30.844C226.426 30.448 226.21 30.232 225.814 30.232H218.146C216.13 30.232 215.086 29.26 215.086 27.532C215.086 25.804 216.13 24.832 218.146 24.832H229.234C231.358 24.832 232.546 25.984 232.51 28.18L232.474 29.836C232.402 32.824 231.826 35.488 230.746 37.828C228.55 42.508 224.734 46 218.938 49.6ZM237.046 54.892V25.336C237.046 23.608 238.162 22.636 239.926 22.636H240.106C241.87 22.636 242.986 23.608 242.986 25.336V54.892C242.986 56.62 241.87 57.592 240.106 57.592H239.926C238.162 57.592 237.046 56.62 237.046 54.892Z" fill="white"/>
<g clip-path="url(#clip0_610_140)">
<path d="M298 28.3334V21.6667L289.667 30L298 38.3334V31.6667C303.517 31.6667 308 36.15 308 41.6667C308 47.1834 303.517 51.6667 298 51.6667C292.484 51.6667 288 47.1834 288 41.6667H284.667C284.667 49.0334 290.634 55 298 55C305.367 55 311.334 49.0334 311.334 41.6667C311.334 34.3 305.367 28.3334 298 28.3334Z" fill="white"/>
</g>
<defs>
<clipPath id="clip0_610_140">
<rect width="40" height="40" fill="white" transform="translate(278 20)"/>
</clipPath>
</defs>
</svg>
