<svg width="370" height="80" viewBox="0 0 370 80" fill="none" xmlns="http://www.w3.org/2000/svg">
<rect width="370" height="80" rx="40" fill="#5490D9"/>
<path d="M129.752 24.832H134.576V58.276H129.752V24.832ZM133.496 37.18H139.4V41.104H133.496V37.18ZM109.736 46.288H112.544C118.16 46.288 122.588 46.108 127.484 45.244L127.952 49.204C122.912 50.104 118.34 50.248 112.544 50.248H109.736V46.288ZM109.736 27.928H125.288V31.78H114.488V48.196H109.736V27.928ZM149.693 27.424H153.581V32.284C153.581 40.852 150.629 48.592 144.005 51.652L141.161 47.692C146.957 45.172 149.693 38.764 149.693 32.284V27.424ZM150.629 27.424H154.517V32.284C154.517 38.44 157.145 44.56 162.833 47.008L160.025 50.86C153.581 47.908 150.629 40.492 150.629 32.284V27.424ZM164.417 24.832H169.241V58.276H164.417V24.832ZM196.058 24.868H200.81V58.204H196.058V24.868ZM199.73 37.864H205.634V41.86H199.73V37.864ZM174.53 29.8H193.934V33.616H174.53V29.8ZM184.286 35.488C189.146 35.488 192.746 38.8 192.746 43.444C192.746 48.088 189.146 51.4 184.286 51.4C179.426 51.4 175.826 48.088 175.826 43.444C175.826 38.8 179.426 35.488 184.286 35.488ZM184.286 39.376C182.018 39.376 180.398 40.888 180.398 43.444C180.398 46 182.018 47.512 184.286 47.512C186.554 47.512 188.174 46 188.174 43.444C188.174 40.888 186.554 39.376 184.286 39.376ZM181.874 25.408H186.662V31.24H181.874V25.408ZM230.76 24.868H235.584V58.204H230.76V24.868ZM220.932 28.324H225.684C225.684 38.512 222.228 46.864 210.384 52.588L207.9 48.772C217.476 44.164 220.932 38.116 220.932 29.188V28.324ZM209.664 28.324H223.2V32.104H209.664V28.324Z" fill="#EDFCFF"/>
<g clip-path="url(#clip0_610_140)">
<path d="M299 30.3334V23.6667L290.667 32L299 40.3334V33.6667C304.517 33.6667 309 38.15 309 43.6667C309 49.1834 304.517 53.6667 299 53.6667C293.484 53.6667 289 49.1834 289 43.6667H285.667C285.667 51.0334 291.634 57 299 57C306.367 57 312.334 51.0334 312.334 43.6667C312.334 36.3 306.367 30.3334 299 30.3334Z" fill="white"/>
</g>
<defs>
<clipPath id="clip0_610_140">
<rect width="40" height="40" fill="white" transform="translate(279 22)"/>
</clipPath>
</defs>
</svg>
