<svg width="60" height="60" viewBox="0 0 60 60" fill="none" xmlns="http://www.w3.org/2000/svg">
<circle cx="30" cy="30" r="30" fill="#ECECEC"/>
<g clip-path="url(#clip0_609_118)">
<path d="M36.0008 35.8285C34.9151 35.8285 33.9437 36.2571 33.2008 36.9285L23.0151 30.9999C23.0866 30.6714 23.1437 30.3428 23.1437 29.9999C23.1437 29.6571 23.0866 29.3285 23.0151 28.9999L33.0865 23.1285C33.858 23.8428 34.8723 24.2857 36.0008 24.2857C38.3723 24.2857 40.2866 22.3714 40.2866 19.9999C40.2866 17.6285 38.3723 15.7142 36.0008 15.7142C33.6294 15.7142 31.7151 17.6285 31.7151 19.9999C31.7151 20.3428 31.7723 20.6714 31.8437 20.9999L21.7723 26.8714C21.0008 26.1571 19.9866 25.7142 18.858 25.7142C16.4866 25.7142 14.5723 27.6285 14.5723 29.9999C14.5723 32.3714 16.4866 34.2857 18.858 34.2857C19.9866 34.2857 21.0008 33.8428 21.7723 33.1285L31.9437 39.0714C31.8723 39.3714 31.8294 39.6857 31.8294 39.9999C31.8294 42.2999 33.7008 44.1714 36.0008 44.1714C38.3008 44.1714 40.1723 42.2999 40.1723 39.9999C40.1723 37.6999 38.3008 35.8285 36.0008 35.8285ZM36.0008 18.5714C36.7866 18.5714 37.4294 19.2142 37.4294 19.9999C37.4294 20.7857 36.7866 21.4285 36.0008 21.4285C35.2151 21.4285 34.5723 20.7857 34.5723 19.9999C34.5723 19.2142 35.2151 18.5714 36.0008 18.5714ZM18.858 31.4285C18.0723 31.4285 17.4294 30.7857 17.4294 29.9999C17.4294 29.2142 18.0723 28.5714 18.858 28.5714C19.6437 28.5714 20.2866 29.2142 20.2866 29.9999C20.2866 30.7857 19.6437 31.4285 18.858 31.4285ZM36.0008 41.4571C35.2151 41.4571 34.5723 40.8142 34.5723 40.0285C34.5723 39.2428 35.2151 38.5999 36.0008 38.5999C36.7866 38.5999 37.4294 39.2428 37.4294 40.0285C37.4294 40.8142 36.7866 41.4571 36.0008 41.4571Z" fill="#080635"/>
</g>
<defs>
<clipPath id="clip0_609_118">
<rect width="34.2857" height="34.2857" fill="white" transform="translate(10.2861 12.8571)"/>
</clipPath>
</defs>
</svg>
